<?xml version="1.0" standalone="no"?>
<!DOCTYPE svg PUBLIC "-//W3C//DTD SVG 20010904//EN"
 "http://www.w3.org/TR/2001/REC-SVG-20010904/DTD/svg10.dtd">
<svg version="1.0" xmlns="http://www.w3.org/2000/svg"
 width="900.000000pt" height="900.000000pt" viewBox="0 0 900.000000 900.000000"
 preserveAspectRatio="xMidYMid meet">
<metadata>
Created by potrace 1.11, written by Peter Selinger 2001-2013
</metadata>
<g transform="translate(0.000000,900.000000) scale(0.100000,-0.100000)"
fill="#000000" stroke="none">
<path d="M2292 8384 c-12 -8 -20 -20 -17 -25 4 -5 -29 -9 -78 -9 -46 0 -108
-5 -138 -10 -119 -23 -217 -98 -264 -203 -27 -59 -29 -72 -36 -272 -4 -115 -8
-274 -8 -352 -1 -126 -3 -142 -18 -146 -17 -4 -17 -5 0 -6 11 -1 17 -9 17 -26
0 -22 -4 -25 -32 -25 -18 0 -46 7 -62 15 -36 19 -56 5 -56 -39 0 -67 26 -96
84 -96 34 0 48 -20 30 -44 -8 -11 -14 -27 -13 -35 0 -11 2 -12 6 -3 6 16 18
15 37 -4 13 -12 16 -40 16 -138 0 -148 1 -149 94 -143 37 2 66 1 66 -1 0 -3
-8 -11 -17 -18 -12 -9 -14 -13 -5 -14 8 0 10 -5 5 -12 -4 -7 -7 -60 -5 -118 1
-58 -1 -111 -7 -119 -5 -7 -33 -16 -62 -19 -42 -4 -55 -1 -65 13 -7 9 -10 23
-7 31 4 10 0 12 -11 8 -9 -3 -16 -1 -16 4 0 6 8 13 18 15 13 4 11 5 -5 6 -33
2 -30 -33 6 -67 l30 -27 4 -230 c3 -174 7 -230 17 -233 9 -3 11 3 7 19 -3 13
-9 120 -13 237 l-7 213 34 -3 34 -3 8 -215 c4 -118 9 -225 12 -237 5 -22 9
-23 98 -21 l92 2 -81 3 -82 4 -7 235 -7 236 27 28 c27 28 27 31 23 120 -3 65
-8 94 -19 101 -8 5 -9 9 -2 9 19 0 18 353 -1 369 -8 6 -12 21 -9 31 4 16 14
20 47 20 51 0 66 13 66 60 0 55 -10 62 -76 60 -33 -1 -63 -2 -69 -1 -15 2 -9
693 6 749 15 56 86 135 141 157 26 10 85 19 150 22 94 5 108 4 108 -10 0 -9 5
-19 10 -22 6 -4 225 -6 488 -5 l477 1 25 23 c22 21 35 24 122 25 111 2 162
-10 212 -50 68 -57 76 -89 77 -330 1 -145 4 -196 9 -159 5 30 8 126 9 212 1
219 -19 272 -122 318 -34 16 -65 20 -164 20 -75 0 -123 4 -123 10 0 13 247 13
255 0 3 -5 16 -9 28 -8 49 4 114 -69 138 -153 12 -43 14 -362 3 -423 -2 -14
-1 -26 4 -26 5 0 15 94 22 208 15 241 8 280 -58 347 -68 68 -100 79 -257 85
-136 5 -140 6 -143 28 -3 21 0 22 55 22 109 -1 230 -18 272 -39 58 -30 109
-85 140 -150 24 -53 25 -64 24 -196 -1 -77 -5 -179 -9 -227 -5 -76 -4 -88 9
-88 14 0 16 27 14 228 -2 222 -3 228 -28 282 -69 147 -174 199 -406 200 -62 0
-74 3 -83 20 -10 20 -21 20 -488 20 -418 0 -480 -2 -500 -16z m-5 -91 l1 -43
-98 0 c-64 0 -116 -6 -149 -17 -61 -19 -138 -83 -158 -130 -15 -38 -23 -43
-17 -10 3 13 -2 8 -12 -13 -15 -31 -16 -74 -9 -399 5 -299 4 -365 -7 -372 -20
-13 -28 -11 -38 14 -8 20 -9 20 -10 2 0 -17 -2 -17 -10 -5 -13 20 -13 594 0
684 31 208 216 341 465 332 40 -1 40 -1 42 -43z m-407 -1023 c0 -5 -17 -10
-37 -10 -28 0 -34 3 -23 10 20 13 60 13 60 0z m-97 -111 c-8 -8 -16 -8 -30 0
-16 9 -14 10 12 11 21 0 26 -3 18 -11z m82 -39 c3 -5 -3 -10 -15 -10 -12 0
-18 5 -15 10 3 6 10 10 15 10 5 0 12 -4 15 -10z"/>
<path d="M2143 8283 c26 -2 67 -2 90 0 23 2 2 3 -48 3 -49 0 -68 -1 -42 -3z"/>
<path d="M2030 8270 c-18 -12 -2 -12 25 0 13 6 15 9 5 9 -8 0 -22 -4 -30 -9z"/>
<path d="M1980 8250 c-9 -6 -10 -10 -3 -10 6 0 15 5 18 10 8 12 4 12 -15 0z"/>
<path d="M1800 7595 c-3 -82 -4 -152 -2 -154 9 -17 12 26 10 155 l-3 149 -5
-150z"/>
<path d="M1801 7364 c0 -11 3 -14 6 -6 3 7 2 16 -1 19 -3 4 -6 -2 -5 -13z"/>
<path d="M3553 7647 c-28 -5 -43 -14 -43 -23 0 -8 5 -12 10 -9 6 3 38 9 72 13
36 4 63 12 66 20 4 14 -33 14 -105 -1z"/>
<path d="M3820 7630 c0 -16 7 -20 30 -20 34 0 39 14 11 30 -29 15 -41 12 -41
-10z"/>
<path d="M3613 7593 c9 -2 23 -2 30 0 6 3 -1 5 -18 5 -16 0 -22 -2 -12 -5z"/>
<path d="M3770 7548 c0 -13 5 -30 10 -38 7 -11 10 -5 10 23 0 20 -4 37 -10 37
-5 0 -10 -10 -10 -22z"/>
<path d="M3686 7547 c2 -7 13 -13 24 -13 24 0 26 11 4 20 -24 9 -34 7 -28 -7z"/>
<path d="M4780 7540 c59 -19 227 -77 275 -95 15 -6 17 -5 9 4 -20 22 -232 94
-310 105 -27 4 -19 -1 26 -14z"/>
<path d="M2455 7505 c-25 -12 -26 -14 -5 -9 28 7 60 23 45 23 -5 0 -23 -6 -40
-14z"/>
<path d="M5080 7436 c0 -2 17 -15 38 -27 20 -13 42 -30 49 -39 8 -10 12 -11
13 -3 0 7 -12 20 -27 30 -16 10 -34 23 -41 30 -13 12 -32 18 -32 9z"/>
<path d="M3590 7314 c-14 -7 -41 -16 -60 -19 -19 -3 -60 -12 -90 -20 -30 -7
-71 -11 -91 -8 -51 7 -352 -70 -383 -99 -6 -4 -17 -8 -26 -8 -8 0 -42 -14 -74
-30 -46 -24 -61 -28 -72 -19 -8 7 -34 13 -57 14 -23 1 -36 0 -29 -2 6 -3 12
-13 12 -24 0 -15 8 -19 33 -20 21 -1 25 -3 11 -6 -50 -10 -360 64 -469 112
l-40 17 25 -27 c14 -15 39 -36 55 -46 40 -25 24 -24 -25 1 -21 11 -46 17 -55
13 -14 -5 -12 -10 12 -30 33 -29 75 -52 117 -64 87 -26 255 -60 366 -74 217
-28 554 -64 559 -59 2 2 -4 4 -15 4 -10 0 -25 4 -31 8 -7 5 130 6 305 4 419
-6 907 26 1131 73 83 17 103 18 80 5 -9 -5 -63 -20 -120 -32 -57 -12 -98 -23
-92 -25 22 -8 299 50 382 79 47 16 94 32 104 35 30 9 18 23 -15 17 -28 -5 -25
-2 18 19 28 14 55 30 59 37 4 6 -7 4 -26 -5 -157 -82 -606 -162 -1035 -187
-392 -22 -1006 11 -1350 73 -195 34 -351 85 -329 107 1 2 11 -1 22 -7 34 -19
119 -39 146 -34 15 3 27 1 27 -5 0 -5 17 -13 38 -17 20 -3 48 -9 62 -11 20 -5
22 -3 10 6 -12 9 -8 10 20 6 96 -15 315 -37 332 -33 10 3 18 1 18 -4 0 -5 21
-9 48 -8 26 0 67 -6 92 -15 35 -13 93 -18 265 -21 231 -4 206 2 -104 24 -148
10 -197 21 -97 21 36 0 55 4 51 10 -3 6 0 10 7 10 10 0 9 3 -2 10 -12 8 -12
10 2 15 15 6 15 10 1 42 -16 40 -14 43 44 65 19 7 33 20 35 32 3 17 19 23 118
40 112 20 115 22 118 49 4 30 -1 31 -38 11z m-310 -174 c0 -5 -5 -10 -11 -10
-5 0 -7 5 -4 10 3 6 8 10 11 10 2 0 4 -4 4 -10z m-297 -177 c-7 -2 -21 -2 -30
0 -10 3 -4 5 12 5 17 0 24 -2 18 -5z m85 -10 c-10 -2 -26 -2 -35 0 -10 3 -2 5
17 5 19 0 27 -2 18 -5z m80 -10 c-10 -2 -26 -2 -35 0 -10 3 -2 5 17 5 19 0 27
-2 18 -5z"/>
<path d="M2871 7164 c0 -11 3 -14 6 -6 3 7 2 16 -1 19 -3 4 -6 -2 -5 -13z"/>
<path d="M4975 7144 c-191 -56 -619 -130 -855 -147 -27 -2 -15 -4 31 -5 100
-3 455 33 594 59 170 32 274 64 304 93 30 31 29 31 -74 0z"/>
<path d="M3585 7127 c-21 -39 -61 -57 -113 -51 -37 5 -37 5 12 -16 27 -11 51
-18 54 -15 3 3 0 5 -8 5 -10 0 -10 3 0 15 7 8 25 15 40 15 24 0 29 5 35 36 9
48 2 51 -20 11z"/>
<path d="M2618 7143 c7 -3 16 -2 19 1 4 3 -2 6 -13 5 -11 0 -14 -3 -6 -6z"/>
<path d="M2813 7133 c-21 -8 -15 -22 7 -16 11 3 20 9 20 14 0 10 -8 10 -27 2z"/>
<path d="M2635 7115 c63 -18 81 -18 35 0 -19 7 -46 14 -60 14 -14 0 -4 -6 25
-14z"/>
<path d="M4000 7120 c0 -5 -18 -10 -40 -10 -29 0 -40 -4 -40 -15 0 -10 -10
-15 -27 -15 -25 -1 -26 -2 -9 -12 12 -6 51 -9 105 -5 51 3 70 2 46 -3 l-40 -7
42 -2 c56 -1 63 -16 7 -16 -24 0 -44 3 -44 8 0 4 -28 6 -62 6 -36 -1 -52 -4
-38 -7 21 -5 17 -7 -20 -13 -25 -3 45 -5 155 -2 110 2 201 8 203 12 1 4 13 6
25 4 12 -2 47 0 77 5 52 9 53 10 15 11 -31 1 -37 4 -25 12 12 9 12 10 -3 5
-10 -3 -22 -6 -25 -6 -4 0 0 -5 8 -10 10 -7 -11 -9 -70 -6 -49 2 -74 0 -60 -4
39 -12 4 -11 -45 1 -25 6 -42 15 -39 20 3 5 -11 9 -32 9 -32 0 -35 2 -23 16
10 13 10 17 -2 25 -19 12 -39 11 -39 -1z"/>
<path d="M1720 7090 c0 -6 -4 -8 -10 -5 -6 4 -10 -28 -10 -89 0 -53 3 -96 8
-96 4 0 8 39 9 87 1 52 7 89 14 93 8 6 8 9 0 14 -6 4 -11 2 -11 -4z"/>
<path d="M4140 7070 c0 -6 11 -8 28 -4 39 10 40 14 4 14 -18 0 -32 -5 -32 -10z"/>
<path d="M3568 7063 c6 -2 18 -2 25 0 6 3 1 5 -13 5 -14 0 -19 -2 -12 -5z"/>
<path d="M3408 7053 c6 -2 18 -2 25 0 6 3 1 5 -13 5 -14 0 -19 -2 -12 -5z"/>
<path d="M4408 7053 c7 -3 16 -2 19 1 4 3 -2 6 -13 5 -11 0 -14 -3 -6 -6z"/>
<path d="M2369 7032 c-4 -29 -6 -39 -7 -56 -2 -15 -7 -17 -33 -12 -21 4 -35 1
-46 -10 -30 -29 25 -67 152 -103 164 -48 650 -101 910 -100 100 1 158 5 140 9
-27 7 -24 8 20 10 48 2 115 17 86 19 -26 2 22 30 51 31 15 0 29 4 32 9 7 11
71 22 166 27 118 8 97 16 -35 14 -66 -1 -218 0 -338 2 -171 2 -216 0 -212 -9
2 -8 -4 -13 -18 -14 -17 -1 -18 -2 -4 -6 23 -6 22 -30 -2 -43 -30 -16 -146
-12 -289 10 -72 11 -137 22 -144 24 -7 2 -25 7 -40 10 -26 6 -28 10 -28 56 0
49 0 49 -37 56 -48 8 -213 49 -275 68 -27 8 -48 12 -49 8z m916 -181 c3 -5 1
-12 -5 -16 -5 -3 -10 1 -10 9 0 18 6 21 15 7z"/>
<path d="M3408 7033 c6 -2 18 -2 25 0 6 3 1 5 -13 5 -14 0 -19 -2 -12 -5z"/>
<path d="M3498 7023 c7 -3 16 -2 19 1 4 3 -2 6 -13 5 -11 0 -14 -3 -6 -6z"/>
<path d="M3560 7020 c-24 -8 -23 -8 8 -9 17 -1 32 4 32 9 0 11 -5 11 -40 0z"/>
<path d="M4915 7003 c-155 -44 -428 -92 -664 -115 -73 -7 -116 -15 -104 -19
17 -6 131 -6 158 1 6 1 28 2 51 1 43 -1 58 -25 22 -37 -33 -10 -8 -24 45 -25
43 -1 47 -3 27 -10 -28 -9 -17 -8 148 12 133 16 132 5 -2 -25 -15 -4 -26 -9
-23 -12 14 -14 343 61 426 97 76 32 67 53 -11 25 -45 -16 -49 -13 -10 8 15 8
21 15 13 16 -11 0 -10 4 4 14 13 9 16 19 10 32 -4 10 -7 27 -6 37 3 20 -14 20
-84 0z m-158 -179 c-3 -3 -12 -4 -19 -1 -8 3 -5 6 6 6 11 1 17 -2 13 -5z"/>
<path d="M4508 6943 c7 -3 16 -2 19 1 4 3 -2 6 -13 5 -11 0 -14 -3 -6 -6z"/>
<path d="M4403 6933 c9 -2 25 -2 35 0 9 3 1 5 -18 5 -19 0 -27 -2 -17 -5z"/>
<path d="M4333 6923 c9 -2 23 -2 30 0 6 3 -1 5 -18 5 -16 0 -22 -2 -12 -5z"/>
<path d="M3388 6903 c17 -2 47 -2 65 0 17 2 3 4 -33 4 -36 0 -50 -2 -32 -4z"/>
<path d="M1705 6881 c-3 -5 -1 -12 5 -16 5 -3 10 1 10 9 0 18 -6 21 -15 7z"/>
<path d="M4048 6863 c12 -2 30 -2 40 0 9 3 -1 5 -23 4 -22 0 -30 -2 -17 -4z"/>
<path d="M2350 6824 c0 -13 4 -32 9 -42 10 -18 31 -283 31 -385 0 -41 -3 -56
-12 -51 -7 5 -8 3 -3 -5 5 -8 -8 -29 -36 -57 -47 -48 -56 -51 -73 -30 -6 8
-28 18 -48 21 -46 9 -53 -4 -43 -71 l7 -46 37 6 c34 5 39 3 50 -20 10 -23 15
-25 47 -19 19 3 43 9 52 12 9 3 5 -4 -10 -16 -16 -12 -28 -29 -28 -37 0 -8 -4
-13 -8 -10 -4 2 -8 -4 -8 -14 0 -17 3 -17 28 -4 15 8 31 14 36 14 11 0 20
-215 28 -700 4 -201 8 -368 10 -371 2 -4 4 -150 4 -325 0 -285 -2 -325 -19
-378 -11 -35 -29 -69 -45 -82 -26 -23 -34 -44 -17 -44 5 0 16 6 23 13 7 8 24
19 36 26 18 9 23 9 26 -1 5 -15 17 -968 16 -1271 0 -220 -14 -435 -30 -451
-20 -20 -71 100 -90 212 -4 26 -8 41 -9 35 -1 -10 -39 -13 -155 -13 l-155 0
-3 -37 c-5 -55 -17 244 -28 677 -18 715 -21 780 -37 780 -12 0 -13 -32 -8
-212 3 -117 10 -422 15 -678 12 -580 18 -700 35 -700 7 0 15 9 18 20 3 11 10
20 15 20 16 0 24 -48 11 -71 -6 -11 -8 -27 -5 -35 3 -8 1 -14 -4 -14 -6 0 -10
-5 -10 -12 0 -6 3 -9 6 -5 12 12 31 -19 32 -51 0 -18 3 -46 7 -61 10 -45 -28
-71 -108 -75 -39 -2 -68 1 -70 7 -4 14 -27 -1 -27 -17 0 -7 11 -18 24 -26 14
-7 22 -18 19 -26 -3 -9 2 -14 16 -14 12 0 24 -7 27 -15 5 -11 11 -8 31 13 l25
27 -22 -38 c-12 -21 -31 -59 -41 -85 -10 -26 -18 -41 -19 -34 0 7 7 29 15 49
20 46 19 57 -2 48 -10 -4 -63 -11 -118 -15 -138 -10 -200 -36 -280 -114 -54
-53 -66 -71 -85 -131 -58 -188 52 -363 274 -435 21 -7 59 -27 83 -44 39 -27
53 -31 106 -30 42 1 92 11 152 33 49 17 92 31 95 31 4 0 5 -13 2 -29 -10 -73
55 -201 158 -307 161 -168 560 -335 912 -383 134 -18 498 -33 648 -26 472 21
878 138 1137 328 78 58 111 91 167 167 54 73 74 134 83 251 10 144 -32 262
-127 358 l-51 52 6 112 c3 62 7 155 9 207 2 52 7 108 11 124 6 23 5 27 -6 21
-11 -7 -12 -6 -4 6 38 51 49 289 14 289 -5 0 -9 -15 -9 -32 0 -74 -49 -198
-77 -198 -7 0 -14 1 -14 3 -1 1 -5 243 -9 537 -5 294 -11 546 -14 560 -6 22
-5 23 4 5 9 -17 10 -16 6 10 -3 17 -10 68 -17 115 -6 47 -24 121 -40 166 -16
44 -29 89 -29 99 0 10 -7 26 -16 36 -9 10 -19 39 -22 65 -3 26 -13 55 -23 65
-13 13 -18 33 -18 73 0 31 -2 60 -6 66 -4 6 -7 63 -7 128 0 64 -3 106 -6 92
-4 -20 -8 -13 -16 30 -10 49 -14 55 -39 58 -31 4 -37 22 -7 22 17 0 20 7 20
40 0 22 5 40 10 40 6 0 10 -18 10 -39 0 -22 5 -43 11 -47 9 -5 10 15 5 77 -5
46 -13 87 -19 91 -8 5 -6 9 6 14 22 8 22 33 0 50 -11 8 -13 13 -5 14 9 0 12
31 12 120 0 66 4 120 9 120 9 0 28 148 24 185 -6 47 -2 153 6 188 10 43 17 54
28 43 4 -4 1 -11 -6 -15 -11 -7 -11 -16 -3 -39 6 -17 8 -40 5 -51 -3 -12 -1
-21 6 -21 6 0 12 6 12 13 1 6 4 -1 8 -18 l6 -30 28 27 c23 23 27 36 27 82 0
30 4 56 9 58 8 3 12 75 27 457 6 133 4 165 -7 172 -10 6 -4 9 19 9 25 0 35 6
44 25 12 26 23 31 33 15 3 -5 17 -10 31 -10 28 0 47 36 42 79 -3 23 -7 26 -38
24 -19 -1 -44 -3 -55 -5 -15 -2 -25 8 -40 37 -18 36 -19 52 -13 170 9 196 9
423 -1 429 -5 3 -35 -4 -67 -15 -55 -19 -176 -49 -199 -49 -5 0 -3 4 4 9 17
11 -54 4 -104 -9 l-30 -8 30 -2 c35 -2 -87 -35 -174 -46 -35 -4 -48 -9 -40
-15 12 -7 12 -9 0 -9 -11 0 -11 -3 -1 -14 6 -8 10 -29 8 -45 -2 -21 3 -35 17
-45 19 -14 19 -15 2 -33 -20 -23 -22 -54 -5 -71 6 -6 11 -32 9 -58 -1 -27 3
-50 9 -54 8 -5 7 -12 -5 -24 -15 -14 -15 -16 -1 -16 23 0 20 -17 -3 -23 -19
-5 -19 -7 -5 -61 8 -31 14 -76 13 -99 -1 -23 1 -54 5 -69 6 -19 4 -28 -3 -28
-13 0 -15 -62 -2 -75 14 -16 31 -199 25 -264 -6 -50 -4 -61 8 -61 17 0 38
-156 38 -281 0 -118 11 -199 26 -199 11 0 14 -19 14 -80 0 -44 4 -80 8 -80 14
0 24 -217 22 -460 -1 -124 -2 -251 -1 -282 2 -47 -1 -58 -13 -58 -17 0 -23
-45 -7 -54 12 -8 2 -96 -14 -122 -11 -18 -11 -23 1 -36 12 -11 12 -20 3 -46
-6 -18 -9 -41 -6 -52 3 -10 0 -21 -7 -24 -7 -3 -6 -8 4 -15 13 -10 13 -12 0
-21 -13 -9 -13 -11 0 -20 12 -8 12 -10 1 -10 -11 0 -13 -22 -8 -127 4 -71 9
-157 13 -193 6 -60 5 -63 -9 -45 -15 20 -16 19 -23 -9 -6 -27 -3 -365 12
-1042 7 -279 6 -291 -12 -298 -66 -26 -348 -88 -477 -106 -94 -12 -287 -13
-287 -2 0 13 65 102 187 259 184 235 261 370 302 532 38 152 23 366 -54 761
-36 188 -57 362 -45 374 5 5 10 32 10 58 l0 48 -66 0 -67 0 7 -52 c4 -28 13
-56 20 -62 8 -7 19 -53 26 -111 6 -55 23 -158 36 -230 61 -325 76 -440 78
-580 1 -121 -2 -150 -23 -215 -41 -133 -121 -273 -248 -435 -170 -218 -212
-275 -236 -320 l-20 -40 -13 30 -13 30 -1 -29 0 -29 -137 7 c-126 7 -230 20
-240 30 -3 2 16 25 41 51 38 40 46 56 51 100 8 59 2 87 -27 127 -12 18 -21 52
-25 95 -6 77 -14 92 -34 67 -10 -13 -11 -16 -1 -10 11 6 12 0 6 -31 -6 -34
-24 -70 -24 -48 0 4 -10 -4 -23 -18 -36 -42 -48 -23 -31 48 57 239 132 683
154 916 6 63 20 157 30 209 10 52 27 155 36 229 12 85 23 135 31 138 9 3 13
25 13 64 l0 59 -65 0 -65 0 0 -60 c0 -33 4 -60 10 -60 25 0 -1 -214 -43 -347
-14 -43 -32 -114 -41 -158 -16 -83 -30 -319 -16 -275 5 15 7 -4 4 -50 -4 -92
-105 -623 -133 -703 -37 -105 -129 -253 -146 -235 -4 4 -18 35 -30 70 -22 58
-23 60 -20 23 2 -22 4 -46 4 -53 1 -7 5 -11 10 -8 5 3 9 -10 9 -30 0 -19 -5
-37 -12 -40 -6 -2 -43 6 -81 19 l-70 24 -5 69 -5 69 -12 -38 c-6 -21 -9 -45
-6 -53 13 -34 -82 -2 -137 46 l-25 21 24 42 c45 80 68 132 81 180 12 43 11 50
-4 65 -10 9 -16 13 -14 7 4 -13 -34 -75 -46 -75 -5 0 -14 -7 -20 -16 -11 -15
-59 -31 -123 -41 -36 -6 -55 -23 -45 -40 6 -9 23 -8 69 4 72 18 94 14 86 -17
-4 -14 -11 -19 -23 -15 -30 9 -114 -14 -133 -38 -13 -15 -20 -18 -24 -9 -13
32 -40 32 -149 -3 -207 -67 -228 -95 -329 -459 -20 -72 -43 -143 -51 -158 -20
-39 -8 -35 16 5 l20 32 0 -33 c0 -78 -104 -123 -156 -67 -12 13 -25 34 -29 45
-11 33 13 89 46 105 27 14 41 45 20 45 -18 0 -64 -44 -77 -74 -8 -19 -13 -24
-14 -13 0 27 28 88 48 103 9 7 29 14 45 14 22 0 29 5 33 30 4 17 11 27 17 23
6 -3 7 -1 3 6 -4 6 -4 25 -1 43 5 19 10 26 15 18 5 -8 9 -4 14 13 3 14 20 62
38 108 26 69 42 93 90 141 67 66 172 124 288 158 41 12 89 30 106 39 17 10 65
26 107 35 64 14 80 22 98 47 26 37 14 59 -24 42 -18 -9 -27 -7 -46 8 -13 11
-32 19 -43 19 -17 0 -18 3 -8 15 7 8 9 15 4 15 -5 0 -9 51 -10 113 -16 1711
-17 2338 -4 2427 7 55 8 45 5 -64 -3 -97 0 -138 11 -164 7 -19 14 -56 14 -83
0 -27 5 -49 10 -49 6 0 10 16 10 36 0 19 6 41 13 49 10 9 16 58 20 167 3 84
11 166 16 181 6 15 13 91 17 170 3 78 10 150 15 159 5 9 9 57 9 107 0 83 2 91
19 91 16 0 20 -11 26 -80 4 -44 11 -80 16 -80 5 0 9 -18 9 -40 0 -29 4 -40 15
-40 13 0 15 25 16 163 0 89 5 272 11 407 5 135 10 265 10 290 1 46 -12 354
-16 400 -3 24 -26 37 -71 39 -14 0 -11 -4 10 -13 l30 -13 -27 -5 c-16 -3 -28
-1 -28 3 0 5 -7 6 -15 3 -8 -4 -21 -2 -28 3 -6 6 -46 22 -87 37 -41 15 -84 31
-95 36 -49 21 -65 19 -65 -6z m2343 -71 c-7 -2 -19 -2 -25 0 -7 3 -2 5 12 5
14 0 19 -2 13 -5z m-2133 -78 c0 -8 -4 -15 -10 -15 -5 0 -7 7 -4 15 4 8 8 15
10 15 2 0 4 -7 4 -15z m2277 2 c17 6 75 -26 67 -38 -4 -7 -10 -7 -17 0 -13 13
-61 15 -53 2 3 -5 -1 -14 -9 -21 -14 -12 -21 -50 -9 -50 3 0 12 7 20 15 18 18
54 20 54 4 0 -8 4 -8 14 0 12 10 13 6 6 -24 -10 -44 -5 -40 -62 -54 -68 -16
-71 -15 -63 17 12 42 14 82 4 82 -5 0 -9 -7 -9 -17 0 -22 -13 -8 -17 18 -3 17
1 20 17 16 11 -3 18 -1 14 4 -3 5 0 9 5 9 6 0 11 5 11 10 0 7 -6 7 -19 0 -27
-14 -38 -13 -44 4 -4 11 1 13 19 10 17 -3 24 0 24 11 0 12 4 13 18 7 9 -5 22
-7 29 -5z m-2160 -19 c-3 -8 -6 -5 -6 6 -1 11 2 17 5 13 3 -3 4 -12 1 -19z
m-153 3 c6 -9 -35 -24 -43 -15 -6 5 18 24 31 24 4 0 9 -4 12 -9z m2173 -48
c-3 -10 -5 -4 -5 12 0 17 2 24 5 18 2 -7 2 -21 0 -30z m-2107 17 c0 -5 -9 -10
-20 -10 -11 0 -20 5 -20 10 0 6 9 10 20 10 11 0 20 -4 20 -10z m-46 -32 c-3
-4 4 -16 14 -26 11 -11 22 -31 26 -46 6 -23 3 -26 -18 -26 -62 0 -106 49 -77
84 6 7 9 15 6 18 -3 3 8 5 24 4 16 -1 27 -4 25 -8z m2151 -27 c3 -5 1 -12 -5
-16 -5 -3 -10 1 -10 9 0 18 6 21 15 7z m-2057 -53 c-2 -12 -9 -23 -16 -26 -7
-2 -10 2 -6 11 3 9 0 25 -6 37 -11 20 -10 21 10 10 13 -7 20 -19 18 -32z
m2137 33 c3 -5 1 -12 -5 -16 -5 -3 -10 -15 -10 -26 0 -10 -4 -19 -10 -19 -11
0 -13 30 -4 54 7 18 20 21 29 7z m111 -191 c-3 -22 -1 -40 5 -40 5 0 9 -5 9
-11 0 -8 -4 -8 -14 0 -16 13 -20 91 -5 91 6 0 8 -17 5 -40z m-2473 -20 c-10
-17 -35 -47 -57 -68 l-40 -37 36 42 c20 23 44 53 53 67 24 36 30 33 8 -4z
m2541 -43 c14 -32 21 -55 17 -53 -10 6 -35 60 -46 96 -12 39 1 21 29 -43z
m-2439 -10 c-8 -13 -34 -39 -58 -57 -73 -58 -74 -56 -2 13 39 36 71 66 73 67
1 0 -4 -11 -13 -23z m2355 -82 c5 -3 10 -11 10 -17 0 -16 -39 31 -61 74 -30
58 -22 59 11 1 16 -28 34 -54 40 -58z m-2484 33 c-1 -24 -9 -36 -31 -50 -66
-40 -75 -11 -12 44 23 20 42 37 43 38 1 0 1 -14 0 -32z m-147 -11 c13 -16 5
-27 -21 -27 -11 0 -18 7 -18 20 0 23 22 27 39 7z m411 -2 c0 -10 -10 -15 -30
-15 -16 0 -30 4 -30 9 0 8 10 12 53 20 4 0 7 -6 7 -14z m2360 -77 c0 -17 -18
-44 -24 -37 -8 7 5 49 15 49 5 0 9 -6 9 -12z m94 -3 c-7 -17 -20 -20 -28 -6
-7 10 3 21 20 21 8 0 11 -6 8 -15z m-2457 -327 c-2 -13 -4 -3 -4 22 0 25 2 35
4 23 2 -13 2 -33 0 -45z m1853 -117 c0 -11 -4 -23 -10 -26 -6 -4 -10 5 -10 19
0 14 5 26 10 26 6 0 10 -9 10 -19z m247 -843 c-2 -13 -4 -3 -4 22 0 25 2 35 4
23 2 -13 2 -33 0 -45z m-190 -1100 c-3 -8 -6 -5 -6 6 -1 11 2 17 5 13 3 -3 4
-12 1 -19z m-1262 -315 c-9 -50 -14 -67 -21 -61 -5 6 16 98 23 98 2 0 1 -17
-2 -37z m-38 -305 c-3 -8 -6 -5 -6 6 -1 11 2 17 5 13 3 -3 4 -12 1 -19z m-717
-628 c12 -7 11 -10 -5 -15 -11 -4 -30 -11 -43 -16 -31 -12 -32 -12 -32 12 0
11 4 18 9 14 5 -3 12 -1 16 5 8 12 35 13 55 0z m-120 -46 c0 -10 -27 -33 -33
-28 -3 3 -8 -3 -11 -14 -5 -13 -25 -26 -59 -36 -73 -23 -197 -76 -229 -98 -14
-10 -30 -18 -35 -18 -5 0 -20 -11 -33 -25 -13 -14 -28 -25 -34 -25 -6 1 9 19
34 41 53 48 137 90 241 120 60 17 79 27 88 46 12 26 71 57 71 37z m2182 -96
c6 -23 -3 -178 -11 -178 -10 0 -22 156 -14 176 6 17 20 18 25 2z m-2027 -108
c3 -5 -1 -10 -9 -10 -9 0 -16 5 -16 10 0 6 4 10 9 10 6 0 13 -4 16 -10z m588
-80 c-13 -5 -23 -16 -23 -25 0 -8 -4 -15 -10 -15 -14 0 -13 23 2 38 7 7 21 12
33 11 19 0 19 -1 -2 -9z m1433 -27 c-10 -10 -19 5 -10 18 6 11 8 11 12 0 2 -7
1 -15 -2 -18z m-1402 -9 c9 -24 7 -41 -3 -25 -7 11 -11 5 -16 -22 -5 -27 -11
-34 -23 -30 -10 4 -13 2 -8 -5 9 -16 -21 -61 -42 -61 -9 0 -30 -3 -47 -6 -31
-7 -77 16 -62 31 4 4 13 2 19 -4 19 -19 56 -14 63 9 8 23 31 20 29 -5 -2 -21
12 -21 20 0 7 19 -10 44 -30 44 -12 0 -12 4 -2 20 12 18 13 19 20 2 6 -15 7
-15 8 3 2 11 2 23 1 27 0 4 8 5 19 3 12 -2 18 0 15 6 -4 5 2 9 12 9 15 0 16 2
3 10 -13 8 -13 10 1 10 9 0 20 -7 23 -16z m36 -49 c-7 -8 -19 -15 -28 -15 -12
0 -11 5 6 20 12 12 23 26 23 33 1 7 3 4 6 -6 3 -10 -1 -24 -7 -32z m1383 30
c1 -5 -6 -11 -15 -13 -11 -2 -18 3 -18 13 0 17 30 18 33 0z m-1553 -71 c0 -25
-4 -27 -33 -16 -16 7 -16 9 -1 30 18 27 34 20 34 -14z m-1176 -68 c-3 -15 -8
-25 -11 -23 -2 3 -1 17 3 31 3 15 8 25 11 23 2 -3 1 -17 -3 -31z m2279 -63
c-7 -2 -21 -2 -30 0 -10 3 -4 5 12 5 17 0 24 -2 18 -5z m-80 -10 c-7 -2 -21
-2 -30 0 -10 3 -4 5 12 5 17 0 24 -2 18 -5z m-64 -7 c-2 -2 -33 -6 -69 -9 -38
-3 -57 -1 -45 3 19 8 123 14 114 6z m1071 -96 c0 -5 -4 -10 -10 -10 -5 0 -10
5 -10 10 0 6 5 10 10 10 6 0 10 -4 10 -10z m-340 -216 c0 -40 -4 -84 -10 -98
-14 -37 -100 -76 -100 -46 0 6 7 10 16 10 12 0 14 7 9 29 -3 17 -2 32 4 36 7
4 11 -5 11 -24 0 -31 13 -39 36 -23 7 4 15 42 19 84 6 61 4 83 -9 109 -16 32
-16 32 4 14 17 -15 20 -31 20 -91z m-515 -81 c-4 -76 -10 -141 -13 -145 -9 -8
-230 -27 -366 -30 l-110 -3 3 100 c2 55 6 118 9 139 l7 40 85 3 c104 3 343 23
349 29 2 2 13 4 24 4 19 0 19 -5 12 -137z m450 119 c-3 -3 -11 0 -18 7 -9 10
-8 11 6 5 10 -3 15 -9 12 -12z m-135 -21 c0 -9 -34 -21 -57 -21 -7 0 -13 5
-13 11 0 5 4 8 9 4 5 -3 12 -2 15 3 6 10 46 13 46 3z m137 -23 c-3 -8 -6 -5
-6 6 -1 11 2 17 5 13 3 -3 4 -12 1 -19z m-217 2 c0 -5 -7 -10 -15 -10 -8 0
-15 5 -15 10 0 6 7 10 15 10 8 0 15 -4 15 -10z m-2540 -140 c0 -5 -21 -10 -47
-9 -39 1 -43 2 -23 9 36 12 70 12 70 0z m2550 -9 c0 -11 -17 -17 -77 -26 -26
-4 -43 -3 -43 3 0 5 26 14 58 20 31 5 58 10 60 11 1 0 2 -3 2 -8z m37 3 c-3
-3 -12 -4 -19 -1 -8 3 -5 6 6 6 11 1 17 -2 13 -5z m-547 -224 c-19 -13 -30
-13 -30 0 0 6 10 10 23 10 18 0 19 -2 7 -10z"/>
<path d="M4124 1518 c-4 -7 -3 -8 5 -4 6 4 20 2 29 -6 15 -12 16 -11 3 5 -16
20 -27 22 -37 5z"/>
<path d="M4187 1469 c4 -13 8 -18 11 -10 2 7 -1 18 -6 23 -8 8 -9 4 -5 -13z"/>
<path d="M1685 6826 c-11 -9 -37 -16 -57 -16 -33 0 -37 -3 -43 -31 -8 -34 4
-49 41 -49 11 0 31 -11 44 -25 13 -14 31 -23 40 -20 13 4 15 -2 12 -35 -4 -36
-2 -40 18 -40 21 0 21 3 19 93 -2 50 0 97 4 104 4 7 -1 14 -14 18 -13 4 -25 2
-29 -5 -6 -10 -9 -8 -11 4 -4 15 -6 16 -24 2z m62 -133 c-3 -10 -5 -4 -5 12 0
17 2 24 5 18 2 -7 2 -21 0 -30z m3 -38 c0 -8 -4 -15 -10 -15 -5 0 -10 7 -10
15 0 8 5 15 10 15 6 0 10 -7 10 -15z"/>
<path d="M4533 6743 c9 -2 25 -2 35 0 9 3 1 5 -18 5 -19 0 -27 -2 -17 -5z"/>
<path d="M4468 6733 c6 -2 18 -2 25 0 6 3 1 5 -13 5 -14 0 -19 -2 -12 -5z"/>
<path d="M3388 6723 c6 -2 18 -2 25 0 6 3 1 5 -13 5 -14 0 -19 -2 -12 -5z"/>
<path d="M3418 6689 c-7 -4 4 -9 28 -11 l39 -4 -32 -8 c-28 -7 -35 -15 -44
-50 -30 -109 -29 -108 -56 -101 -21 5 -23 3 -14 -13 9 -16 19 -19 58 -15 l48
5 -30 -21 c-16 -12 -36 -21 -44 -21 -11 0 -11 -3 -1 -14 7 -9 23 -13 41 -11
16 2 29 -1 29 -7 0 -6 11 -8 28 -5 l27 6 0 -69 c0 -37 -3 -63 -6 -58 -4 6 -9
5 -13 -3 -3 -8 -3 0 0 17 3 17 2 43 -1 57 -6 23 -9 24 -21 12 -18 -18 -18 -35
1 -35 8 0 15 -5 15 -11 0 -6 -7 -9 -15 -5 -11 4 -15 -2 -16 -22 -1 -24 -2 -23
-9 8 -4 20 -8 26 -9 14 -1 -22 -31 -30 -31 -8 0 7 -5 16 -11 20 -8 5 -10 -3
-7 -24 4 -27 -6 -42 -27 -42 -2 0 -6 19 -10 41 -5 30 -3 44 6 50 10 6 11 11 3
17 -6 4 -13 14 -16 22 -7 19 -21 -88 -16 -120 2 -14 15 -29 35 -39 36 -18 42
-31 14 -31 -15 0 -21 -12 -30 -61 -7 -33 -18 -62 -26 -66 -16 -6 -59 -94 -70
-142 -7 -35 -30 -51 -72 -51 l-28 0 2 -292 c1 -161 7 -458 13 -660 7 -231 8
-373 2 -384 -5 -9 -7 -25 -5 -35 4 -13 0 -19 -11 -19 -21 0 -20 -19 4 -50 27
-34 27 -80 0 -80 -11 0 -20 -7 -20 -15 0 -8 5 -15 10 -15 6 0 10 -8 11 -17 0
-17 1 -17 7 -1 6 15 9 13 20 -12 8 -17 24 -35 35 -42 24 -12 683 -14 915 -2
162 9 172 16 172 120 0 52 4 74 13 74 9 0 9 2 0 8 -10 6 -14 118 -19 457 -3
248 -9 479 -14 515 -4 36 -4 74 0 85 11 33 11 287 0 280 -6 -3 -10 -14 -11
-23 0 -11 -4 -9 -10 8 -6 13 -8 34 -5 45 3 11 1 26 -3 34 -7 11 -10 10 -18 -3
-8 -14 -45 -17 -293 -22 -157 -3 -280 -2 -274 3 22 16 33 81 31 191 -2 93 0
115 13 122 11 7 9 9 -12 10 -15 0 -30 5 -33 10 -3 6 -1 10 6 10 8 0 8 4 -1 15
-10 12 -10 21 -1 41 14 31 15 108 1 99 -5 -3 -10 -25 -10 -48 0 -31 -3 -38
-10 -27 -12 19 -13 80 -1 80 5 0 5 16 0 38 -6 28 -5 40 6 48 8 6 15 18 15 26
0 19 -26 42 -38 34 -6 -3 -12 3 -15 15 -3 12 0 22 9 26 20 7 18 23 -3 24 -14
0 -12 3 5 10 13 5 20 14 17 20 -4 6 -14 8 -22 5 -9 -4 -11 -2 -6 7 4 6 8 17 8
22 0 6 11 12 25 13 14 2 32 10 41 18 16 14 89 22 223 23 38 1 66 4 63 7 -9 10
-534 12 -549 3z m217 -229 c3 -5 -1 -10 -9 -10 -9 0 -16 5 -16 10 0 6 4 10 9
10 6 0 13 -4 16 -10z m-16 -82 c-3 -87 -17 -121 -19 -43 0 43 -3 56 -10 45 -9
-13 -10 -13 -10 0 0 16 27 60 36 60 3 0 4 -28 3 -62z m-53 -29 c1 -41 -1 -59
-3 -41 -4 34 -9 37 -32 23 -8 -5 -11 -17 -7 -32 l6 -24 -12 23 c-8 17 -9 28
-1 40 5 10 9 31 8 47 -1 17 0 20 2 8 2 -12 10 -27 18 -33 12 -10 13 -6 5 22
-13 43 -13 50 3 46 8 -3 12 -29 13 -79z m-36 -109 c0 -5 -5 -10 -11 -10 -5 0
-7 5 -4 10 3 6 8 10 11 10 2 0 4 -4 4 -10z m109 -17 c0 -25 -1 -26 -9 -8 -5
12 -9 14 -9 6 -1 -8 -4 -11 -7 -8 -6 6 13 37 22 37 2 0 4 -12 3 -27z m-39 -3
c0 -5 -2 -10 -4 -10 -3 0 -8 5 -11 10 -3 6 -1 10 4 10 6 0 11 -4 11 -10z
m-434 -362 c-1 -22 4 -23 89 -29 l90 -5 -97 -2 -98 -2 0 30 c0 17 4 30 8 30 5
0 8 -10 8 -22z m748 -74 c10 -27 7 -94 -5 -94 -6 0 -9 9 -6 20 3 11 0 20 -6
20 -8 0 -8 3 -2 8 6 4 11 15 13 24 2 14 -4 16 -34 12 -21 -2 -46 -2 -56 2 -32
10 -8 24 42 24 34 0 50 -4 54 -16z m-344 2 c0 -3 -4 -8 -10 -11 -5 -3 -10 -1
-10 4 0 6 5 11 10 11 6 0 10 -2 10 -4z m40 -6 c0 -5 -7 -7 -15 -4 -8 4 -15 8
-15 10 0 2 7 4 15 4 8 0 15 -4 15 -10z m130 0 c-20 -13 -110 -13 -110 0 0 6
27 10 63 10 44 0 58 -3 47 -10z m-242 -7 c-14 -3 -18 -15 -18 -45 0 -33 3 -39
16 -34 14 5 15 4 4 -9 -22 -27 -30 -16 -30 40 0 51 2 55 23 54 16 -1 18 -2 5
-6z m232 -23 c0 -5 10 -10 22 -10 13 0 18 -4 13 -9 -14 -13 -205 -24 -205 -12
0 5 6 12 13 15 6 3 0 4 -15 1 -15 -3 -29 -1 -33 4 -6 11 33 17 133 19 42 1 72
-2 72 -8z m537 -52 c-3 -8 -6 -5 -6 6 -1 11 2 17 5 13 3 -3 4 -12 1 -19z
m-424 -5 c-7 -2 -21 -2 -30 0 -10 3 -4 5 12 5 17 0 24 -2 18 -5z m-215 -10
c-15 -2 -42 -2 -60 0 -18 2 -6 4 27 4 33 0 48 -2 33 -4z m79 1 c-3 -3 -12 -4
-19 -1 -8 3 -5 6 6 6 11 1 17 -2 13 -5z m3 -74 c0 -5 -7 -10 -15 -10 -8 0 -15
5 -15 10 0 6 7 10 15 10 8 0 15 -4 15 -10z m217 -42 c-3 -8 -6 -5 -6 6 -1 11
2 17 5 13 3 -3 4 -12 1 -19z m73 8 c0 -2 -11 -6 -25 -8 -14 -3 -25 -1 -25 3 0
5 11 9 25 9 14 0 25 -2 25 -4z m-660 -16 c0 -5 -5 -10 -11 -10 -5 0 -7 5 -4
10 3 6 8 10 11 10 2 0 4 -4 4 -10z m353 3 c-7 -2 -19 -2 -25 0 -7 3 -2 5 12 5
14 0 19 -2 13 -5z m-265 -10 c-10 -2 -26 -2 -35 0 -10 3 -2 5 17 5 19 0 27 -2
18 -5z m284 -35 c-9 -9 -15 -9 -24 0 -9 9 -7 12 12 12 19 0 21 -3 12 -12z
m423 -38 c-16 -4 -73 -7 -125 -7 l-95 1 95 6 c52 3 109 7 125 7 l30 1 -30 -8z
m-412 -17 c-7 -2 -21 -2 -30 0 -10 3 -4 5 12 5 17 0 24 -2 18 -5z"/>
<path d="M3623 5733 c9 -2 23 -2 30 0 6 3 -1 5 -18 5 -16 0 -22 -2 -12 -5z"/>
<path d="M1823 6445 c0 -22 2 -30 4 -17 2 12 2 30 0 40 -3 9 -5 -1 -4 -23z"/>
<path d="M3341 6424 c0 -11 3 -14 6 -6 3 7 2 16 -1 19 -3 4 -6 -2 -5 -13z"/>
<path d="M3658 6400 c2 -16 6 -30 8 -30 2 0 4 14 4 30 0 17 -4 30 -8 30 -5 0
-7 -13 -4 -30z"/>
<path d="M3699 6350 c-4 -41 -5 -77 -3 -79 11 -12 15 13 12 80 l-3 74 -6 -75z"/>
<path d="M3420 6396 c0 -7 -10 -16 -22 -20 -15 -4 -19 -9 -12 -13 6 -5 14 -15
17 -23 4 -12 6 -11 6 3 1 10 6 15 11 12 6 -4 10 7 10 24 0 17 -2 31 -5 31 -3
0 -5 -6 -5 -14z"/>
<path d="M3761 6344 c0 -11 3 -14 6 -6 3 7 2 16 -1 19 -3 4 -6 -2 -5 -13z"/>
<path d="M3752 6300 c0 -14 2 -19 5 -12 2 6 2 18 0 25 -3 6 -5 1 -5 -13z"/>
<path d="M3686 6213 c-6 -14 -5 -15 5 -6 7 7 10 15 7 18 -3 3 -9 -2 -12 -12z"/>
<path d="M1826 6053 c-6 -14 -5 -15 5 -6 7 7 10 15 7 18 -3 3 -9 -2 -12 -12z"/>
<path d="M1978 6063 c7 -3 16 -2 19 1 4 3 -2 6 -13 5 -11 0 -14 -3 -6 -6z"/>
<path d="M2243 6045 c-17 -19 -16 -22 7 -28 19 -5 20 -14 20 -162 0 -101 3
-154 10 -150 16 10 12 316 -4 338 -16 20 -17 20 -33 2z"/>
<path d="M1760 6042 c0 -12 19 -26 26 -19 2 2 -2 10 -11 17 -9 8 -15 8 -15 2z"/>
<path d="M1795 5795 c14 -657 41 -1528 43 -1360 1 61 -5 351 -13 645 -8 294
-15 612 -16 705 -1 94 -5 184 -10 200 -5 18 -6 -61 -4 -190z"/>
<path d="M1864 5994 c3 -9 6 -20 6 -25 0 -6 3 -8 8 -6 4 3 8 -151 10 -342 1
-190 9 -587 18 -881 8 -294 15 -543 15 -552 0 -10 7 -18 16 -18 13 0 14 13 9
88 -3 48 -8 215 -11 372 -4 157 -13 517 -21 800 -7 283 -14 530 -14 548 0 26
-4 32 -21 32 -15 0 -19 -4 -15 -16z"/>
<path d="M4260 5876 c0 -8 5 -18 12 -22 7 -5 9 -2 5 9 -3 9 -1 18 6 21 7 2 4
5 -5 5 -10 1 -18 -5 -18 -13z"/>
<path d="M4256 5824 c-9 -24 -7 -27 9 -10 17 17 19 26 6 26 -5 0 -12 -7 -15
-16z"/>
<path d="M2253 4206 c9 -7 17 -20 17 -27 0 -8 9 -20 21 -27 19 -12 20 -21 17
-147 -2 -74 0 -135 4 -135 4 0 8 66 10 148 2 108 -1 154 -10 175 -11 21 -17
25 -27 17 -9 -8 -15 -8 -20 0 -3 5 -12 10 -18 10 -7 0 -4 -7 6 -14z"/>
<path d="M1830 4181 c0 -12 5 -21 10 -21 6 0 10 6 10 14 0 8 -4 18 -10 21 -5
3 -10 -3 -10 -14z"/>
<path d="M4249 4168 c-1 -2 -3 -21 -5 -43 -2 -22 -6 -50 -9 -62 -4 -16 -1 -23
10 -23 12 0 15 14 15 65 0 36 -2 65 -5 65 -3 0 -5 -1 -6 -2z"/>
<path d="M1843 4070 c0 -41 2 -58 4 -37 2 20 2 54 0 75 -2 20 -4 3 -4 -38z"/>
<path d="M3940 3963 c0 -57 28 -334 34 -340 12 -12 18 145 10 256 -8 108 -12
126 -26 129 -15 3 -18 -4 -18 -45z"/>
<path d="M3475 3873 c-3 -71 -13 -238 -20 -373 -23 -392 -28 -515 -22 -510 12
11 57 515 72 805 3 66 8 139 12 163 5 37 3 42 -15 42 -19 0 -20 -9 -27 -127z"/>
<path d="M1852 3855 c0 -16 2 -22 5 -12 2 9 2 23 0 30 -3 6 -5 -1 -5 -18z"/>
<path d="M1853 3685 c0 -22 2 -30 4 -17 2 12 2 30 0 40 -3 9 -5 -1 -4 -23z"/>
<path d="M3397 3534 c-4 -4 -6 -41 -6 -83 l2 -76 8 75 c9 78 9 96 -4 84z"/>
<path d="M1863 3425 c0 -33 2 -45 4 -27 2 18 2 45 0 60 -2 15 -4 0 -4 -33z"/>
<path d="M5874 3395 c-12 -30 4 -45 46 -45 32 0 40 4 40 18 0 10 -5 23 -12 30
-17 17 -67 15 -74 -3z"/>
<path d="M6354 3375 c-3 -14 -4 -39 -2 -55 4 -29 4 -30 -39 -30 -24 0 -43 5
-43 10 0 6 -9 1 -20 -10 -19 -19 -25 -20 -80 -6 -3 0 -5 -3 -5 -9 0 -10 5 -12
38 -14 19 -1 23 -27 5 -33 -7 -2 -31 -4 -53 -3 -31 0 -40 4 -45 21 -11 45 -40
70 -74 66 -19 -2 -47 3 -64 12 -17 9 -49 16 -72 16 -33 0 -40 3 -40 20 0 12
-5 17 -14 14 -8 -3 -17 -1 -21 5 -3 6 -12 11 -18 11 -7 0 -4 -7 7 -15 23 -18
13 -35 -22 -35 -35 0 -50 -11 -46 -33 5 -38 14 -47 43 -47 16 0 31 -6 34 -12
3 -10 9 -10 30 1 19 10 40 12 79 6 29 -5 72 -9 96 -9 78 -1 37 -21 -57 -28
-90 -6 -133 -17 -75 -19 29 -1 29 -1 4 -9 -14 -4 -36 -8 -50 -9 -20 -1 -22 1
-10 9 22 14 1 12 -60 -6 -77 -23 -210 -87 -245 -118 -16 -14 -33 -26 -36 -26
-4 0 -10 -7 -13 -16 -4 -10 -2 -13 7 -7 7 4 6 -3 -4 -17 -8 -14 -19 -31 -23
-39 -7 -11 -10 -11 -18 0 -6 10 -7 6 -3 -10 6 -19 4 -23 -8 -18 -11 4 -14 0
-11 -16 2 -12 2 -16 -2 -9 -11 23 -21 12 -39 -45 -16 -50 -17 -64 -5 -118 14
-68 14 -149 -2 -178 -6 -12 -7 -41 -2 -76 12 -90 7 -682 -6 -732 -7 -23 -9
-61 -6 -84 4 -22 7 -96 7 -164 1 -144 12 -191 66 -269 21 -30 46 -66 55 -80
l17 -25 3 49 c2 37 7 48 18 46 29 -7 40 29 41 132 0 56 4 121 8 146 7 35 9 19
10 -75 1 -66 4 -130 7 -142 18 -68 24 11 25 345 1 202 5 457 8 567 4 119 7
-86 7 -502 -1 -549 2 -705 12 -714 6 -7 12 -25 12 -40 0 -15 7 -32 16 -40 14
-12 14 -14 -1 -25 -9 -6 -26 -10 -38 -8 l-22 5 22 -12 c36 -19 111 14 129 57
8 19 16 34 17 34 2 0 31 -11 65 -25 90 -37 236 -81 323 -99 200 -40 508 -45
674 -11 141 29 346 107 367 139 5 7 8 4 8 -7 0 -38 127 -82 167 -58 15 9 13
10 -15 11 -18 0 -47 6 -65 13 -28 12 -32 19 -31 48 1 29 5 34 25 35 13 1 40 4
59 8 l36 7 22 422 c12 232 27 568 32 747 l11 325 35 35 c29 30 36 33 45 20 8
-11 9 -6 4 20 -3 19 -7 78 -8 130 -2 86 -5 102 -36 165 -42 86 -135 182 -242
252 -139 90 -380 174 -584 203 -51 7 -85 17 -92 28 -16 20 -17 -1 -2 -29 8
-15 7 -24 -2 -35 -10 -13 -28 -14 -98 -9 -96 8 -124 22 -103 55 12 20 7 50 -9
50 -5 0 -11 -11 -15 -25z m-499 -75 c3 -5 -3 -10 -15 -10 -12 0 -18 5 -15 10
3 6 10 10 15 10 5 0 12 -4 15 -10z m425 -40 c0 -5 -2 -10 -4 -10 -3 0 -8 5
-11 10 -3 6 -1 10 4 10 6 0 11 -4 11 -10z m60 0 c0 -5 -4 -10 -10 -10 -5 0
-10 5 -10 10 0 6 5 10 10 10 6 0 10 -4 10 -10z m10 -51 c0 -5 -18 -9 -40 -9
-40 0 -56 15 -22 22 24 5 62 -3 62 -13z m-167 -14 c9 -22 -53 -77 -128 -113
-37 -18 -70 -31 -73 -28 -3 3 21 17 54 32 71 31 114 69 114 101 0 25 25 32 33
8z m357 -95 c0 -5 -10 -10 -22 -9 -22 0 -22 1 -3 9 11 5 21 9 23 9 1 1 2 -3 2
-9z m-53 -6 c-3 -3 -12 -4 -19 -1 -8 3 -5 6 6 6 11 1 17 -2 13 -5z m40 -20
c-3 -3 -12 -4 -19 -1 -8 3 -5 6 6 6 11 1 17 -2 13 -5z m-234 -21 c-7 -2 -19
-2 -25 0 -7 3 -2 5 12 5 14 0 19 -2 13 -5z m264 1 c-3 -3 -12 -4 -19 -1 -8 3
-5 6 6 6 11 1 17 -2 13 -5z m-607 -16 c-102 -43 -214 -108 -264 -151 -36 -31
-53 -41 -43 -26 41 61 252 187 317 187 8 1 4 -4 -10 -10z m-475 -186 c-3 -3
-10 -1 -16 5 -8 8 -8 20 2 43 l14 31 3 -37 c2 -20 1 -39 -3 -42z m1359 28 c70
-31 161 -89 153 -97 -3 -2 -25 8 -49 23 -23 15 -71 40 -106 54 -35 15 -68 32
-75 39 -19 19 7 13 77 -19z m-1346 -79 c7 -21 12 -46 12 -55 0 -9 3 -16 8 -16
4 0 26 -19 50 -41 33 -32 42 -37 43 -22 0 10 3 13 6 6 2 -7 9 -13 13 -13 5 0
39 -19 75 -42 61 -39 64 -43 42 -49 -14 -4 -38 -17 -55 -29 l-31 -23 -38 25
c-21 13 -46 27 -55 31 -22 8 -22 17 -4 42 12 17 15 18 30 3 23 -24 86 -61 92
-55 3 3 -15 19 -40 36 -24 17 -54 43 -65 57 -12 15 -21 23 -21 18 0 -4 -22 16
-50 44 -27 29 -50 57 -50 63 0 8 5 8 15 -1 18 -15 19 -3 5 34 -5 14 -6 26 -1
26 4 0 13 -17 19 -39z m882 -11 c12 -8 11 -10 -7 -10 -13 0 -23 5 -23 10 0 13
11 13 30 0z m1077 -47 c-3 -10 -5 -2 -5 17 0 19 2 27 5 18 2 -10 2 -26 0 -35z
m-1613 -80 c-3 -32 -2 -82 4 -110 5 -31 5 -53 0 -53 -13 0 -28 46 -28 85 0 36
19 135 26 135 2 0 1 -26 -2 -57z m1648 4 c4 -7 -8 -26 -28 -46 -19 -19 -33
-40 -30 -48 7 -18 -2 -16 -31 7 -14 11 -39 20 -56 20 l-31 0 48 46 c44 42 51
45 85 39 20 -4 39 -12 43 -18z m-1155 -29 c-3 -8 -6 -5 -6 6 -1 11 2 17 5 13
3 -3 4 -12 1 -19z m30 0 c-3 -8 -6 -5 -6 6 -1 11 2 17 5 13 3 -3 4 -12 1 -19z
m894 -54 c5 -15 8 -29 5 -31 -2 -2 -8 10 -14 26 -13 38 -5 41 9 5z m66 -41
c-4 -3 -26 -15 -49 -25 -45 -20 -45 -16 -1 13 27 17 63 26 50 12z m-1738 -37
c27 -19 52 -32 55 -29 3 4 6 -4 6 -16 0 -24 -5 -27 -72 -36 l-48 -6 0 60 c0
34 2 61 5 61 3 0 27 -15 54 -34z m221 14 c8 -5 11 -10 5 -10 -5 0 -17 5 -25
10 -8 5 -10 10 -5 10 6 0 17 -5 25 -10z m580 -6 c0 -1 -3 -9 -6 -18 -5 -13 -8
-13 -20 -1 -19 19 -18 24 6 22 11 -1 20 -2 20 -3z m830 -24 c-8 -5 -19 -10
-25 -10 -5 0 -3 5 5 10 8 5 20 10 25 10 6 0 3 -5 -5 -10z m-55 -20 c-11 -5
-27 -9 -35 -9 -9 0 -8 4 5 9 11 5 27 9 35 9 9 0 8 -4 -5 -9z m-70 -20 c-11 -5
-27 -9 -35 -9 -9 0 -8 4 5 9 11 5 27 9 35 9 9 0 8 -4 -5 -9z m-68 -16 c-3 -3
-12 -4 -19 -1 -8 3 -5 6 6 6 11 1 17 -2 13 -5z m-100 -20 c-3 -3 -12 -4 -19
-1 -8 3 -5 6 6 6 11 1 17 -2 13 -5z m-554 -11 c-7 -2 -21 -2 -30 0 -10 3 -4 5
12 5 17 0 24 -2 18 -5z m480 0 c-7 -2 -21 -2 -30 0 -10 3 -4 5 12 5 17 0 24
-2 18 -5z m-376 -9 c-3 -3 -12 -4 -19 -1 -8 3 -5 6 6 6 11 1 17 -2 13 -5z m76
-1 c-13 -2 -33 -2 -45 0 -13 2 -3 4 22 4 25 0 35 -2 23 -4z m302 -34 c-70 -14
-306 -22 -400 -13 l-90 9 130 5 c216 10 406 9 360 -1z m-1261 -25 c17 -23 17
-35 9 -122 l-10 -97 -2 108 c-1 85 -4 109 -16 113 -8 4 -15 10 -15 15 0 16 15
9 34 -17z m1239 -121 c-7 -2 -19 -2 -25 0 -7 3 -2 5 12 5 14 0 19 -2 13 -5z
m-103 -13 c-71 -10 -256 -10 -295 0 -17 4 54 8 160 7 129 0 172 -2 135 -7z
m158 -125 c-12 -12 -229 -35 -323 -34 -191 1 -203 16 -15 19 96 1 202 6 235
10 81 10 109 11 103 5z m-17 -166 c-46 -18 -335 -31 -424 -19 -45 7 -84 13
-85 15 -2 2 103 3 233 3 130 0 239 3 242 6 4 3 18 6 32 5 l26 0 -24 -10z
m-191 -159 c-72 -10 -188 -10 -220 0 -15 5 36 8 125 8 111 -1 136 -3 95 -8z
m99 -133 c-66 -12 -351 -13 -371 -2 -11 7 52 10 199 10 136 0 199 -3 172 -8z
m78 -123 c-3 -3 -12 -4 -19 -1 -8 3 -5 6 6 6 11 1 17 -2 13 -5z m-87 -17 c-79
-11 -347 -12 -398 -1 -30 6 32 9 205 9 158 0 228 -3 193 -8z m-153 -149 c-66
-6 -134 -6 -175 0 -57 8 -41 9 108 9 l175 0 -108 -9z m693 -32 c0 -2 -8 -10
-17 -17 -16 -13 -17 -12 -4 4 13 16 21 21 21 13z m-59 -46 c-13 -11 -28 -20
-35 -20 -6 0 3 9 19 19 39 25 46 25 16 1z m-436 -51 c-65 -15 -364 -21 -430
-10 -53 9 -45 10 65 6 69 -2 166 0 215 4 50 4 113 8 140 8 l50 1 -40 -9z
m-192 -156 c-40 -2 -106 -2 -145 0 -40 1 -8 3 72 3 80 0 112 -2 73 -3z m647
-57 c0 -2 -7 -7 -16 -10 -8 -3 -12 -2 -9 4 6 10 25 14 25 6z m-443 -62 c-3 -3
-12 -4 -19 -1 -8 3 -5 6 6 6 11 1 17 -2 13 -5z m-83 -16 c-21 -4 -102 -7 -179
-7 -77 0 -158 3 -179 7 -21 4 59 7 179 7 120 0 200 -3 179 -7z"/>
<path d="M5768 3373 c7 -3 16 -2 19 1 4 3 -2 6 -13 5 -11 0 -14 -3 -6 -6z"/>
<path d="M6528 3353 c6 -2 18 -2 25 0 6 3 1 5 -13 5 -14 0 -19 -2 -12 -5z"/>
<path d="M6303 3318 c2 -25 37 -24 37 1 0 13 -6 19 -19 18 -12 -1 -19 -8 -18
-19z"/>
<path d="M1863 3285 c0 -22 2 -30 4 -17 2 12 2 30 0 40 -3 9 -5 -1 -4 -23z"/>
<path d="M1862 3220 c0 -14 2 -19 5 -12 2 6 2 18 0 25 -3 6 -5 1 -5 -13z"/>
<path d="M1873 3025 c0 -33 2 -45 4 -27 2 18 2 45 0 60 -2 15 -4 0 -4 -33z"/>
<path d="M3227 3053 c-4 -3 -7 -16 -6 -27 0 -19 1 -19 10 3 10 24 8 36 -4 24z"/>
<path d="M3203 2988 c-5 -7 -18 -31 -28 -52 -11 -21 -28 -48 -37 -60 -43 -53
-88 -117 -88 -126 0 -6 -4 -10 -10 -10 -5 0 -10 -5 -10 -12 0 -6 9 -3 20 7 11
10 18 20 16 23 -3 2 7 16 22 31 32 32 64 76 93 128 34 60 48 106 22 71z"/>
<path d="M1793 2703 c9 -2 25 -2 35 0 9 3 1 5 -18 5 -19 0 -27 -2 -17 -5z"/>
<path d="M1748 2693 c7 -3 16 -2 19 1 4 3 -2 6 -13 5 -11 0 -14 -3 -6 -6z"/>
<path d="M2398 2365 c-3 -3 -38 -15 -79 -26 -109 -30 -193 -74 -249 -130 -28
-27 -50 -54 -50 -60 0 -5 14 6 32 26 59 68 120 100 263 139 103 28 110 31 108
41 -2 11 -17 18 -25 10z"/>
<path d="M3644 2180 c0 -69 1 -97 3 -62 2 34 2 90 0 125 -2 34 -3 6 -3 -63z"/>
<path d="M1861 1904 c0 -11 3 -14 6 -6 3 7 2 16 -1 19 -3 4 -6 -2 -5 -13z"/>
<path d="M7433 1018 c3 -9 1 -19 -6 -22 -9 -3 -9 -5 0 -5 18 -1 27 19 13 32
-10 9 -12 8 -7 -5z"/>
<path d="M5556 993 c-10 -10 -7 -53 4 -53 5 0 7 7 3 16 -3 9 0 20 7 24 7 4 8
10 2 13 -5 4 -12 4 -16 0z"/>
<path d="M5560 917 c0 -3 12 -12 26 -22 15 -9 23 -12 20 -6 -7 11 -46 35 -46
28z"/>
</g>
</svg>
